<svg xmlns="http://www.w3.org/2000/svg" width="146.542" height="141.227" viewBox="0 0 146.542 141.227"><defs><style>.a{fill:#457b9d;}.b{fill:#fff;stroke-width:9px;}.b,.c{stroke:#457b9d;}.c,.e{fill:none;}.c{stroke-linecap:round;stroke-width:6px;}.d{stroke:none;}</style></defs><g transform="translate(0 0)"><g transform="translate(0 0)"><path class="a" d="M118.417,109.585A13.574,13.574,0,0,0,131.4,99.5L146.426,43.55a3.42,3.42,0,0,0-2.393-4.179,4.016,4.016,0,0,0-.861-.128H30.147L22.458,10.851A3.38,3.38,0,0,0,19.2,8.331H0v6.795H16.525L23.958,42.88a2.357,2.357,0,0,0,0,.67L39.27,99.7a11.219,11.219,0,0,0,.415,1.372l5.168,18.822A15.755,15.755,0,1,0,66.1,126.27c-.287-.51-.574-1.021-.925-1.531h40.1a15.756,15.756,0,1,0,24.5-1.6,15.306,15.306,0,0,0-11.421-5.2H51.648l-2.393-8.773a12.939,12.939,0,0,0,3.126.415Zm-.223,15.153a9.06,9.06,0,1,1-9.06,9.06A9.054,9.054,0,0,1,118.194,124.738Zm-65.94,0a9.06,9.06,0,1,1-9.06,9.06A9.047,9.047,0,0,1,52.254,124.738ZM46.193,98.484,38.569,70.6,31.774,46.1H138.611L124.8,97.973a6.816,6.816,0,0,1-6.476,5.1h-66A6.883,6.883,0,0,1,46.193,98.484Z" transform="translate(0 -8.331)"/></g></g><g class="b" transform="translate(63.892 13.279)"><circle class="d" cx="21.652" cy="21.652" r="21.652"/><circle class="e" cx="21.652" cy="21.652" r="17.152"/></g><line class="c" x2="15.618" transform="translate(77.735 34.931)"/></svg>