<svg xmlns="http://www.w3.org/2000/svg" width="30" height="30" viewBox="0 0 30 30"><defs><style>.a{fill:#fff;}</style></defs><path class="a" d="M15,0A15,15,0,1,0,30,15,15,15,0,0,0,15,0Zm0,28.636A13.636,13.636,0,1,1,28.636,15,13.636,13.636,0,0,1,15,28.636Z"/><path class="a" d="M150.546,139.636h-8.182a2.727,2.727,0,0,0-2.727,2.727v8.182a2.727,2.727,0,0,0,2.727,2.727h8.182a2.727,2.727,0,0,0,2.727-2.727v-8.182A2.727,2.727,0,0,0,150.546,139.636Zm-1.364,2.045h2.045v2.045h-2.045Zm-2.727,2.046a2.727,2.727,0,1,1-2.727,2.727A2.727,2.727,0,0,1,146.455,143.727Zm5.455,6.818a1.364,1.364,0,0,1-1.364,1.364h-8.182A1.364,1.364,0,0,1,141,150.545v-4.773h1.432a4.091,4.091,0,1,0,8.114.682,4.039,4.039,0,0,0-.068-.682h1.432v4.773Z" transform="translate(-131.455 -131.454)"/></svg>