<svg xmlns="http://www.w3.org/2000/svg" width="51.791" height="36.711" viewBox="0 0 51.791 36.711"><defs><style>.a,.b{fill:#1e1e1c;}.a{fill-rule:evenodd;}.c{fill:#1d1e1b;}</style></defs><path class="a" d="M103.516,56.514c1.762-.2,3.285.52,4.927.84a9.789,9.789,0,0,1,4.609,3.126c.64.481,1.483,1.081,1.562,1.923a14.351,14.351,0,0,0,1,2.243c.241.722.6,1.723,1.523,1.8.842.241,1.521.881,2.447.963,1-.408,2.164,0,3.247.08a26.583,26.583,0,0,0,4.487-2.325c2.039-.881,3.969.408,5.69,1.244.481.359,1.162.679,1.362,1.281l-.12.12a16.545,16.545,0,0,1,3.243,4.132v.2c-.161.041-.241-.12-.408-.159a3.536,3.536,0,0,1,.44,1.835,3.781,3.781,0,0,0-.52-.681,8.818,8.818,0,0,1,.52,2.926h-.08a3.184,3.184,0,0,0-.842-1.2c.241.8,1,1.442.883,2.364-.681-.64-1.042-1.521-1.723-2.2.039.279.279.561.279.881a1.974,1.974,0,0,1-1.24-1.081c-.683-1.8-2.606-2.284-4.089-2.965-.32-.12-.64-.361-1-.2-.32.12-.612-.039-.922-.039l-.753.279c-1.723.2-3.567.2-5.1.963-.281.279-.2.72-.361,1.081-.922.722-1.083,1.835-2.084,2.525-.44.279-.52.84-.961,1.083-.041-.322,0-.563-.041-.883a1.2,1.2,0,0,0-.241.722c.039.08.161,0,.161.12-.322.041-.561-.241-.722-.481-.241-.681.12-1.762-.681-2.2l-.561.118a.963.963,0,0,1,.2,1.564c-.08-.041-.12.039-.12.08v.041a.039.039,0,0,0-.039-.041c-.241.159-.522.2-.722.44.161.08.408.041.52.161a1.3,1.3,0,0,1-.881.2,8.429,8.429,0,0,1-3.045.64c-.08.12,0,.161-.039.32.2,0,.479.041.6-.2.041.082-.039.2-.08.281a.693.693,0,0,1-.718.243c-.44-.082-.722-.722-1.283-.563a10.333,10.333,0,0,1-4.487-.6.322.322,0,0,1-.2-.2c-.041-.64.408-1.081.72-1.562a14.71,14.71,0,0,0,2.6-4.325c-.118-.082-.241.08-.32,0,.041.118-.118.039-.159.118-.281-.08-.681-.08-.763-.479-.039-.12.082-.443-.159-.443a.355.355,0,0,1-.408-.239c-.12-.2.08-.642-.279-.6-.408-.241.039-.881-.522-.963a8.773,8.773,0,0,0-.8-1.4,3.671,3.671,0,0,0-.479-2.164c-.12-.161-.041-.281-.082-.481-.408-.281-.922-.561-1.081-1.042l.279-.12c-.881-.12-1.2-1.242-2.039-1.4-.881-1.162-2.523-.763-3.406-1.923,0-.2.32-.12.441-.2-.408-.241-.881-.361-1.16-.761.08-.12.32-.041.279-.241a4.782,4.782,0,0,1-1.2-.761c-.12-.2.12-.161.241-.2.612-.08,1.081.241,1.642.281-.612-.361-1.4-.481-1.762-1.2-.082-.12.08-.2.2-.2,1.122.082,2.084.612,3.126.763a4.894,4.894,0,0,1-2.447-1.4c.52,0,1,.161,1.523.2C101.834,56.037,102.715,56.473,103.516,56.514Z" transform="translate(-91.17 -56.302)"/><path class="b" d="M174.032,228.248a.135.135,0,0,1,.016.126.316.316,0,0,1-.2.143H174.9a.534.534,0,0,1-.3-.261l-.016-.024-1.06-1.631h-.7a.408.408,0,0,1,.2.137l.01.018-.012.016-.958,1.466a.589.589,0,0,1-.312.277h.857a.3.3,0,0,1-.19-.143.12.12,0,0,1,.014-.116l.237-.373h1.132Zm-1.25-.524.465-.72.457.72Z" transform="translate(-149.419 -191.871)"/><path class="b" d="M188.816,234.36c-.055,0-.237.014-.237.192a.2.2,0,0,0,.241.2c.112,0,.245-.051.245-.2S188.91,234.36,188.816,234.36Z" transform="translate(-162.809 -198.048)"/><path class="b" d="M196.362,227.088c-.367-.069-.655-.122-.655-.306s.243-.306.612-.306.74.041.9.341v-.4h-.179a1.835,1.835,0,0,0-.714-.122c-.573,0-1.15.167-1.15.538s.512.461.961.547c.4.073.771.145.771.392s-.381.377-.757.377-.873-.073-1.044-.42v.369a2.557,2.557,0,0,0,1.05.2c.634,0,1.273-.182,1.273-.587C197.439,227.288,196.841,227.176,196.362,227.088Z" transform="translate(-168.007 -191.629)"/><path class="b" d="M208.5,234.36c-.055,0-.237.014-.237.192a.2.2,0,0,0,.239.2c.114,0,.247-.051.247-.2S208.588,234.36,208.5,234.36Z" transform="translate(-178.475 -198.048)"/><path class="c" d="M64.614,181.692c.149-.351-.265-.669-.636-.777v-.135h2.676l2.568,4.756,2.49-4.756h2.651v.135c-.379.116-.8.383-.659.753l1.468,4.079c.3.83.691,1.056.989,1.148v.124H73.32v-.124c.485-.067.577-.385.408-.846l-1.485-3.934-2.623,4.894H68.355l-2.614-4.915-1.5,3.952c-.157.42-.157.712.363.838v.124H62.21v-.124c.428-.067.693-.318.932-1.02Z" transform="translate(-62.21 -155.395)"/><path class="c" d="M137.654,189.4h-2.837l-.585.936c-.182.277.19.512.536.6v.124h-2.6v-.124a1.356,1.356,0,0,0,1.005-.8l2.447-3.785a1.02,1.02,0,0,0-.612-.351v-.135h2.029l2.767,4.309a1.258,1.258,0,0,0,.989.755v.124h-3.132v-.124c.328-.075.75-.31.553-.612Zm-2.447-.6h2.078l-1.03-1.65Z" transform="translate(-117.903 -159.447)"/><path class="c" d="M179.89,185.87V186a.6.6,0,0,0-.544.653v3.659c0,.126,0,.159.041.167h2.82a1.122,1.122,0,0,0,.9-.7h.133l-.33,1.281H177.3v-.124a.581.581,0,0,0,.52-.6v-3.683a.587.587,0,0,0-.52-.653v-.135Z" transform="translate(-153.829 -159.447)"/><path class="c" d="M211.375,187.879h1.9c.2,0,.363-.243.438-.51h.131v1.591H213.7c-.043-.259-.2-.5-.408-.5h-1.913v1.5a.616.616,0,0,0,.553.653v.124h-2.6v-.124a.685.685,0,0,0,.512-.763v-3.516a.575.575,0,0,0-.512-.653v-.135h5.329a.453.453,0,0,0,.255-.084h.116l-.173,1.256h-.124c-.016-.243-.133-.569-.408-.569h-2.937Z" transform="translate(-179.327 -159.12)"/><path class="c" d="M244.15,185.87V186a.6.6,0,0,0-.545.653v3.683c0,.337.2.52.545.6v.124h-2.59v-.141a.56.56,0,0,0,.52-.579v-3.683a.587.587,0,0,0-.52-.653v-.135Z" transform="translate(-204.984 -159.447)"/><path class="c" d="M266.909,191.06h-1.122l-4.56-3.775v3.059a.587.587,0,0,0,.536.6v.124H259.52v-.141c.328-.067.553-.243.553-.579v-3.763a.646.646,0,0,0-.553-.577v-.135H261.5l4.264,3.493V186.59c0-.326-.222-.51-.544-.585v-.135h2.227V186a.587.587,0,0,0-.536.585Z" transform="translate(-219.282 -159.447)"/><path class="c" d="M306.06,185.87V186a.6.6,0,0,0-.544.653v3.683a.6.6,0,0,0,.544.6v.124h-2.59v-.141a.56.56,0,0,0,.52-.579v-3.683a.587.587,0,0,0-.52-.653v-.135Z" transform="translate(-254.269 -159.447)"/></svg>