<svg id="Capa_1" enable-background="new 0 0 512 512" height="512" viewBox="0 0 512 512" width="512" xmlns="http://www.w3.org/2000/svg">
	<path d="m398.202 364.653-35.187-29.653c-10.851-9.144-24.637-13.854-38.81-13.244-31.061 1.322-43.033 24.419-56.973 35.924-5.195 5.196-13.653 5.197-18.849 0l-103.43-103.43c-5.209-5.208-5.211-13.64.001-18.85l19.428-19.428c20.73-20.73 22.173-53.9 3.252-76.354l-29.652-35.187c-21.584-25.611-60.481-27.174-84.072-3.581-5.529 7.581-53.91 40.681-53.91 110.23 0 36.318 14.144 70.463 39.824 96.145l134.197 134.198c2.929 2.929 7.677 2.93 10.607 0 2.929-2.929 2.929-7.678 0-10.606l-134.196-134.199c-22.849-22.848-35.432-53.226-35.432-85.538 0-60.035 40.532-89.334 43.74-93.847l83.768 99.401-8.16 8.161c-11.073 11.071-11.074 28.99-.001 40.063l103.43 103.43c11.07 11.07 28.991 11.072 40.063 0l8.161-8.16 99.401 83.767c-4.223 3.002-33.903 43.74-93.846 43.74-32.313 0-62.69-12.583-85.538-35.432-2.93-2.929-7.678-2.929-10.607 0s-2.929 7.678 0 10.606c26.508 26.507 61.326 39.761 96.146 39.761 69.47 0 103.087-48.745 110.229-53.845 23.64-23.642 21.98-62.529-3.584-84.072zm-328.462-257.645c17.1-12.365 42.065-10.362 56.771 7.09l29.652 35.187c13.999 16.611 12.973 40.721-2.389 56.081l-.622.622zm325.885 325.887-98.98-83.413.623-.623c15.359-15.361 39.468-16.388 56.08-2.388l35.188 29.652c17.444 14.701 19.462 39.661 7.089 56.772z" fill="#EBF1F4" />
</svg>
