<svg xmlns="http://www.w3.org/2000/svg" width="60.508" height="31.91" viewBox="0 0 60.508 31.91"><defs><style>.a{fill:#1e1e1e;}</style></defs><g transform="translate(0 0)"><g transform="translate(34.303 0)"><path class="a" d="M201.4,25.451V4.7h2.232V23.22h8.081v2.232Z" transform="translate(-201.4 -4.7)"/></g><path class="a" d="M92,11.8c-5.219,0-9,4.121-9,9.791s3.779,9.791,9,9.791,9-4.121,9-9.791S97.218,11.8,92,11.8Zm0,17.332c-4.013,0-6.929-3.168-6.929-7.541S87.985,14.05,92,14.05s6.929,3.168,6.929,7.541C98.946,25.964,96.03,29.132,92,29.132Z" transform="translate(-70.006 -10.522)"/><g transform="translate(57.646 4.931)"><g transform="translate(0 0)"><path class="a" d="M333.962,33.486a1.387,1.387,0,0,1-1.422,1.4,1.414,1.414,0,0,1-1.44-1.4,1.4,1.4,0,0,1,1.44-1.386A1.383,1.383,0,0,1,333.962,33.486Zm-2.5,0a1.08,1.08,0,0,0,1.08,1.116,1.061,1.061,0,0,0,1.062-1.1,1.076,1.076,0,0,0-1.062-1.116A1.065,1.065,0,0,0,331.46,33.486Zm.864.72H332V32.82a3.8,3.8,0,0,1,.54-.036.769.769,0,0,1,.486.108.384.384,0,0,1,.144.306.379.379,0,0,1-.288.324h0a.379.379,0,0,1,.252.342.7.7,0,0,0,.108.342H332.9a1.264,1.264,0,0,1-.108-.342c-.018-.144-.108-.216-.288-.216h-.162l-.018.558Zm0-.774h.144c.18,0,.324-.054.324-.2,0-.126-.09-.216-.288-.216-.09,0-.144.018-.18.018Z" transform="translate(-331.1 -32.1)"/></g></g><g transform="translate(27.914 25.269)"><path class="a" d="M166.674,155.733h-.486v-2.376H165.9v-.45h.288V151.9h.486v1.008h.5v.45h-.5Z" transform="translate(-165.9 -150.676)"/><path class="a" d="M175.968,145.6v2.466l.018.018a.937.937,0,0,1,.81-.414c.792,0,.972.558.972,1.224v1.674h-.486v-1.6c0-.45-.036-.864-.594-.864-.666,0-.7.612-.7,1.116v1.35H175.5V145.6Z" transform="translate(-173.772 -145.51)"/><path class="a" d="M192.186,158.684a.923.923,0,0,0,.936.954.975.975,0,0,0,.864-.576l.414.234a1.422,1.422,0,0,1-1.314.792,1.371,1.371,0,0,1-1.386-1.458,1.373,1.373,0,1,1,2.718.072h-2.232Zm1.728-.414a.865.865,0,0,0-.828-.738.9.9,0,0,0-.864.738Z" transform="translate(-187.057 -154.94)"/><path class="a" d="M220.256,150.157h-.486v-2.376h-.27v-.45h.27V146.2a1.492,1.492,0,0,1,.126-.738.819.819,0,0,1,.72-.36,1.13,1.13,0,0,1,.342.054v.486a.947.947,0,0,0-.324-.072c-.4,0-.4.27-.4.774v.954h.72v.45h-.72l.018,2.412Z" transform="translate(-209.853 -145.1)"/><path class="a" d="M231.426,159.916h-.486v-.4h-.018a1.21,1.21,0,0,1-.972.468,1.394,1.394,0,0,1-1.35-1.494A1.377,1.377,0,0,1,229.968,157a1.227,1.227,0,0,1,.972.486h.018v-.4h.486v2.826Zm-2.34-1.44a.944.944,0,1,0,1.872.018.955.955,0,0,0-.954-1.026A.933.933,0,0,0,229.086,158.476Z" transform="translate(-217.315 -154.858)"/><path class="a" d="M249.884,150.042a.342.342,0,0,1-.684,0,.354.354,0,0,1,.342-.342A.342.342,0,0,1,249.884,150.042Zm-.108,3.888h-.486V151.1h.486Z" transform="translate(-234.208 -148.872)"/><path class="a" d="M258.286,157.478h0a.772.772,0,0,1,.648-.378.924.924,0,0,1,.432.126l-.234.432a.425.425,0,0,0-.288-.126c-.522,0-.558.684-.558,1.044V160H257.8v-2.826h.486v.306Z" transform="translate(-241.26 -154.94)"/><path class="a" d="M279.568,157.656a.477.477,0,0,0-.378-.288.335.335,0,0,0-.342.306c0,.252.324.36.648.486.324.144.648.342.648.81a.919.919,0,0,1-.954.918,1,1,0,0,1-.99-.72l.432-.18c.126.27.252.45.576.45a.431.431,0,0,0,.45-.432c0-.63-1.278-.414-1.278-1.314a.8.8,0,0,1,.846-.792.87.87,0,0,1,.756.522Z" transform="translate(-257.989 -154.776)"/><path class="a" d="M293,157.486h0a1.262,1.262,0,0,1,.99-.486,1.4,1.4,0,0,1,1.35,1.494,1.377,1.377,0,0,1-1.368,1.494,1.21,1.21,0,0,1-.972-.468h-.018v1.98H292.5V157.09h.486v.4Zm-.018.99a.944.944,0,1,0,1.872.018.955.955,0,0,0-.954-1.026A.933.933,0,0,0,292.986,158.476Z" transform="translate(-269.715 -154.858)"/><path class="a" d="M312.684,150.042a.342.342,0,1,1-.684,0,.354.354,0,0,1,.342-.342A.331.331,0,0,1,312.684,150.042Zm-.09,3.888h-.486V151.1h.486Z" transform="translate(-285.705 -148.872)"/><path class="a" d="M321.186,157.478h0a.772.772,0,0,1,.648-.378.924.924,0,0,1,.432.126l-.234.432a.425.425,0,0,0-.288-.126c-.522,0-.558.684-.558,1.044V160H320.7v-2.826h.486v.306Z" transform="translate(-292.84 -154.94)"/><path class="a" d="M332.684,150.042a.342.342,0,0,1-.684,0,.354.354,0,0,1,.342-.342A.342.342,0,0,1,332.684,150.042Zm-.108,3.888h-.486V151.1h.486Z" transform="translate(-302.106 -148.872)"/><path class="a" d="M340.074,155.733h-.486v-2.376H339.3v-.45h.288V151.9h.486v1.008h.5v.45h-.5Z" transform="translate(-308.092 -150.676)"/></g><path class="a" d="M23.6,4.7V6.914c-3.564.054-5.291,1.836-5.291,5.453v5.687a8.412,8.412,0,0,1-1.458,5.327c-1.26,1.584-3.06,2.214-6.047,2.142V23.31c4.445-.054,5.291-1.89,5.291-5.255V12.367C16.109,7.562,18.827,4.772,23.6,4.7Z" transform="translate(-10.8 -4.7)"/><path class="a" d="M288.778,4.7V6.914c-3.564.054-5.291,1.836-5.291,5.453v5.687a8.5,8.5,0,0,1-1.44,5.327c-1.26,1.584-3.06,2.214-6.047,2.142V23.31c4.427-.054,5.291-1.89,5.291-5.255V12.367C281.291,7.562,284.009,4.772,288.778,4.7Z" transform="translate(-228.27 -4.7)"/><g transform="translate(43.248)"><path class="a" d="M255.743,4.7a6.582,6.582,0,0,1-3.959,5.741L251.1,8.318A4.388,4.388,0,0,0,253.512,4.7Z" transform="translate(-251.1 -4.7)"/></g></g></svg>