<svg xmlns="http://www.w3.org/2000/svg" width="21" height="30" viewBox="0 0 21 30">
  <g id="backpack" transform="translate(-74.278 0)">
    <path id="Path_83" data-name="Path 83" d="M95.271,26.577l-.493-7.62a.434.434,0,1,0-.867.058l.493,7.62a2.328,2.328,0,0,1-.616,1.747,2.263,2.263,0,0,1-1.678.738H77.446a2.262,2.262,0,0,1-1.678-.738,2.329,2.329,0,0,1-.616-1.747l.9-13.931q.013-.2.035-.4V12.3A8.879,8.879,0,0,1,78.8,6.812a8.656,8.656,0,0,1,11.955,0A8.888,8.888,0,0,1,93.5,12.7l.294,4.553a.434.434,0,1,0,.867-.058l-.294-4.553c-.009-.137-.021-.274-.035-.411V3a1.364,1.364,0,0,0-1.353-1.372H91.564A1.364,1.364,0,0,0,90.211,3V5.241a9.547,9.547,0,0,0-1.188-.705c0-.076.007-.151.007-.224a4.252,4.252,0,1,0-8.5,0c0,.073,0,.149.007.224a9.552,9.552,0,0,0-1.188.705V3a1.364,1.364,0,0,0-1.353-1.372H76.575A1.364,1.364,0,0,0,75.221,3V5.178a.434.434,0,1,0,.868,0V3a.489.489,0,0,1,.485-.492h1.418A.489.489,0,0,1,78.477,3V5.923c-.091.08-.182.162-.27.246A9.734,9.734,0,0,0,76.09,9.107V6.939a.434.434,0,1,0-.868,0v5.3c-.014.136-.027.273-.035.411l-.9,13.931a3.208,3.208,0,0,0,.849,2.406A3.117,3.117,0,0,0,77.446,30H92.11a3.117,3.117,0,0,0,2.312-1.016A3.208,3.208,0,0,0,95.271,26.577ZM83.383,3.638a1.536,1.536,0,0,1,2.791,0,9.541,9.541,0,0,0-2.791,0ZM91.079,3a.489.489,0,0,1,.485-.492h1.418A.489.489,0,0,1,93.467,3V9.107a9.734,9.734,0,0,0-2.117-2.938c-.089-.084-.179-.166-.27-.246V3ZM84.778.881a3.408,3.408,0,0,1,3.379,3.275,9.44,9.44,0,0,0-1.012-.321,2.407,2.407,0,0,0-4.734,0,9.471,9.471,0,0,0-1.012.321A3.409,3.409,0,0,1,84.778.881Z" fill="#e63946"/>
    <path id="Path_84" data-name="Path 84" d="M136.051,112.092a6.063,6.063,0,1,1,12.126,0,.435.435,0,0,0,.429.414h.027a.438.438,0,0,0,.4-.468,7.643,7.643,0,0,0-2.173-4.936,6.6,6.6,0,0,0-9.5,0,7.643,7.643,0,0,0-2.173,4.936.431.431,0,1,0,.86.055Z" transform="translate(-57.335 -98.931)" fill="#e63946"/>
    <path id="Path_85" data-name="Path 85" d="M140.213,295.815h-7.889a.441.441,0,0,0,0,.883h7.889a1.613,1.613,0,0,0,1.579-1.711l-.393-6.957a1.6,1.6,0,0,0-1.579-1.525H128.963a1.6,1.6,0,0,0-1.579,1.525l-.393,6.957a1.613,1.613,0,0,0,1.579,1.711h2.03a.441.441,0,0,0,0-.883h-2.03a.732.732,0,0,1-.718-.778l.3-5.366h10.482v1a.431.431,0,1,0,.863,0v-1h1.129l.3,5.366A.732.732,0,0,1,140.213,295.815ZM128.2,288.789l.04-.709a.727.727,0,0,1,.718-.693H139.82a.727.727,0,0,1,.718.693l.04.709Z" transform="translate(-49.613 -269.745)" fill="#e63946"/>
  </g>
</svg>
