<svg id="cpu" xmlns="http://www.w3.org/2000/svg" width="30" height="30" viewBox="0 0 30 30">
  <g id="Group_936" data-name="Group 936" transform="translate(0 3.297)">
    <g id="Group_935" data-name="Group 935">
      <path id="Path_55" data-name="Path 55" d="M5.363,56.263H5.356a2.006,2.006,0,0,0-1.968,2v2.855H.442a.442.442,0,1,0,0,.883H3.388V64.32H.442a.442.442,0,1,0,0,.883H3.388v2.322H.442a.442.442,0,0,0,0,.883H3.388v2.322H.442a.442.442,0,0,0,0,.883H3.388v2.322H.442a.442.442,0,1,0,0,.883H3.388v1.51a.442.442,0,0,0,.883,0V58.261a1.12,1.12,0,0,1,1.1-1.115.441.441,0,0,0-.007-.883Z" transform="translate(0 -56.263)" fill="#e63946"/>
    </g>
  </g>
  <g id="Group_938" data-name="Group 938" transform="translate(3.503 24.67)">
    <g id="Group_937" data-name="Group 937">
      <path id="Path_56" data-name="Path 56" d="M80.318,422H61.671a1.112,1.112,0,0,1-1.033-.693.441.441,0,1,0-.817.334,1.991,1.991,0,0,0,1.85,1.242h2.763v3.038a.442.442,0,0,0,.883,0v-3.038h2.322v3.038a.442.442,0,0,0,.883,0v-3.038h2.322v3.038a.442.442,0,0,0,.883,0v-3.038h2.322v3.038a.442.442,0,0,0,.883,0v-3.038h2.322v3.038a.442.442,0,0,0,.883,0v-3.038h2.182a.442.442,0,1,0,0-.883Z" transform="translate(-59.788 -421.037)" fill="#e63946"/>
    </g>
  </g>
  <g id="Group_940" data-name="Group 940" transform="translate(7.6 7.508)">
    <g id="Group_939" data-name="Group 939">
      <path id="Path_57" data-name="Path 57" d="M143.095,128.138H131.117a1.413,1.413,0,0,0-1.411,1.411v11.978a1.413,1.413,0,0,0,1.411,1.411h11.978a1.413,1.413,0,0,0,1.411-1.411V129.549A1.413,1.413,0,0,0,143.095,128.138Zm-12.506,1.411a.528.528,0,0,1,.528-.528h9.134v4.612a2.1,2.1,0,0,0-1.6,1.6H135.4V132.97a1.815,1.815,0,1,0-2.131-2.131h-2.676v-1.29Zm10.1,4.92a1.207,1.207,0,1,1-1.207,1.207A1.208,1.208,0,0,1,140.693,134.469Zm-5.647-2.348a.932.932,0,1,1,.932-.932A.933.933,0,0,1,135.046,132.121Zm-1.907,7.217a.84.84,0,1,1,1.252-.732A.84.84,0,0,1,133.139,139.338Zm3.571,2.718h-2.962v-1.738a1.723,1.723,0,1,0-.883-.131v1.869h-1.747a.529.529,0,0,1-.528-.528v-9.805h2.722a1.849,1.849,0,0,0,1.2,1.2v2.752a.442.442,0,0,0,.442.442h1.756Zm6.913-.528a.529.529,0,0,1-.528.528h-5.5v-1.91h6.03Zm0-2.265h-6.03v-3.145h1.056a2.09,2.09,0,1,0,2.485-2.485h0v-4.612h1.961a.528.528,0,0,1,.528.528v9.714Z" transform="translate(-129.706 -128.138)" fill="#e63946"/>
    </g>
  </g>
  <g id="Group_942" data-name="Group 942" transform="translate(6.687)">
    <g id="Group_941" data-name="Group 941">
      <path id="Path_58" data-name="Path 58" d="M137,12.237a.442.442,0,0,0,0-.883h-2.946V9.032H137a.442.442,0,0,0,0-.883h-2.946V5.294a2,2,0,0,0-2-2h-2.763V.442a.442.442,0,0,0-.883,0V3.3H126.09V.442a.442.442,0,1,0-.883,0V3.3h-2.322V.442a.442.442,0,1,0-.883,0V3.3h-2.322V.442a.442.442,0,0,0-.883,0V3.3h-2.322V.442a.442.442,0,0,0-.883,0V3.3h-1.02a.442.442,0,1,0,0,.883h17.485a1.116,1.116,0,0,1,1.115,1.115V24.522a1.1,1.1,0,0,1-.346.807.442.442,0,0,0,.609.639,1.982,1.982,0,0,0,.619-1.447V21.851H137a.442.442,0,0,0,0-.883h-2.946V18.646H137a.442.442,0,0,0,0-.883h-2.946V15.442H137a.442.442,0,0,0,0-.883h-2.946V12.237H137Z" transform="translate(-114.131)" fill="#e63946"/>
    </g>
  </g>
</svg>
