<?xml version="1.0" encoding="iso-8859-1"?>
<!-- Generator: Adobe Illustrator 19.0.0, SVG Export Plug-In . SVG Version: 6.00 Build 0)  -->
<svg version="1.1" id="Layer_1" xmlns="http://www.w3.org/2000/svg" xmlns:xlink="http://www.w3.org/1999/xlink" x="0px" y="0px"
	 viewBox="0 0 512.001 512.001" style="enable-background:new 0 0 512.001 512.001;" xml:space="preserve" width="30" height="30">
<g>
	<g>
		<path d="M511.983,139.429c-0.006-0.121-0.013-0.24-0.026-0.362c-0.269-5.224-2.384-10.137-6.029-13.888
			c-0.033-0.034-0.068-0.068-0.101-0.102l-79.982-79.409c-0.054-0.054-0.113-0.1-0.168-0.152c-0.101-0.095-0.203-0.189-0.311-0.28
			c-0.108-0.091-0.219-0.177-0.331-0.262c-0.066-0.051-0.126-0.105-0.194-0.154c-0.037-0.026-0.075-0.046-0.112-0.071
			c-0.117-0.081-0.237-0.155-0.357-0.228c-0.112-0.069-0.224-0.139-0.338-0.201c-0.108-0.059-0.217-0.111-0.326-0.165
			c-0.133-0.066-0.267-0.131-0.403-0.189c-0.094-0.04-0.191-0.074-0.286-0.11c-0.154-0.058-0.307-0.116-0.462-0.165
			c-0.088-0.027-0.178-0.048-0.266-0.073c-0.165-0.045-0.328-0.089-0.494-0.124c-0.093-0.019-0.187-0.032-0.281-0.048
			c-0.163-0.028-0.325-0.055-0.489-0.072c-0.104-0.011-0.21-0.016-0.314-0.023c-0.154-0.011-0.308-0.022-0.461-0.023
			c-0.031,0-0.062-0.004-0.094-0.004H256c-0.014,0-0.027,0-0.041,0H91.845c-0.03,0-0.06,0.004-0.09,0.004
			c-0.158,0.002-0.318,0.013-0.476,0.024c-0.1,0.008-0.201,0.011-0.3,0.021c-0.168,0.018-0.334,0.046-0.501,0.074
			c-0.089,0.015-0.181,0.028-0.269,0.046c-0.168,0.034-0.335,0.08-0.502,0.126c-0.086,0.024-0.173,0.044-0.259,0.071
			c-0.157,0.049-0.312,0.108-0.468,0.167c-0.094,0.036-0.188,0.069-0.281,0.108c-0.138,0.058-0.272,0.125-0.408,0.192
			c-0.108,0.053-0.215,0.104-0.321,0.163c-0.116,0.065-0.23,0.135-0.346,0.206c-0.118,0.072-0.236,0.145-0.35,0.224
			c-0.038,0.026-0.078,0.046-0.115,0.073c-0.07,0.049-0.131,0.106-0.199,0.157c-0.11,0.083-0.217,0.167-0.323,0.256
			c-0.11,0.093-0.213,0.188-0.318,0.285c-0.054,0.051-0.112,0.096-0.164,0.147L6.173,125.078c-0.033,0.033-0.068,0.068-0.101,0.102
			c-3.646,3.752-5.762,8.666-6.03,13.891c-0.012,0.125-0.019,0.249-0.026,0.372c-0.002,0.075-0.014,0.15-0.016,0.225
			c-0.001,0.058,0.004,0.115,0.003,0.173c0,0.126,0.002,0.252,0.008,0.377c0.011,4.91,1.679,9.675,4.765,13.489l234.42,306.88
			c0.058,0.075,0.116,0.15,0.177,0.223c4.092,4.983,10.134,7.847,16.58,7.861h0.003c0.013,0,0.026,0.003,0.039,0.003h0.004h0.004
			c0.013,0,0.026-0.003,0.039-0.003h0.002c6.447-0.014,12.489-2.877,16.582-7.861c0.06-0.073,0.118-0.147,0.177-0.223
			l116.232-152.164c2.708-3.544,2.029-8.61-1.515-11.318c-3.546-2.708-8.613-2.028-11.318,1.515L270.968,436.386l70.34-258.04
			l147.788-27.513l-97.322,127.404c-2.708,3.544-2.029,8.61,1.515,11.318c3.545,2.708,8.613,2.029,11.318-1.515l102.613-134.33
			c3.088-3.814,4.758-8.584,4.767-13.498c0.008-0.123,0.01-0.248,0.01-0.373c-0.001-0.056,0.005-0.11,0.003-0.166v-0.001
			c0-0.001,0-0.002,0-0.003C511.998,139.588,511.986,139.509,511.983,139.429z M256.074,65.943l65.443,96.974H192.065
			L256.074,65.943z M240.997,59.473l-64.189,97.246l-69.294-97.246H240.997z M90.786,63.827l68.128,95.611l-138.695-25.55
			L90.786,63.827z M22.873,150.797l147.733,27.216l70.426,258.377L22.873,150.797z M256.001,429.896l-68.369-250.83h136.745
			L256.001,429.896z M336.031,155.555l-64.84-96.083h133.298L336.031,155.555z M352.855,159.771l68.36-95.944l70.584,70.077
			L352.855,159.771z" fill="#E63946"/>
	</g>
</g>
<g>
</g>
<g>
</g>
<g>
</g>
<g>
</g>
<g>
</g>
<g>
</g>
<g>
</g>
<g>
</g>
<g>
</g>
<g>
</g>
<g>
</g>
<g>
</g>
<g>
</g>
<g>
</g>
<g>
</g>
</svg>
