<svg xmlns="http://www.w3.org/2000/svg" width="13" height="30" viewBox="0 0 13 30">
  <g id="natural-oil" transform="translate(-146.355 0)">
    <path id="Path_81" data-name="Path 81" d="M159.355,9.708a7.175,7.175,0,0,0-1.064-3.758.442.442,0,0,0-.605-.145.436.436,0,0,0-.146.6,6.318,6.318,0,0,1,.716,1.66h-10.8a6.32,6.32,0,0,1,2.02-3.178l1.18-1h4.4l1.18,1,.066.057.018.016a.442.442,0,0,0,.621-.038.436.436,0,0,0-.038-.618l-.017-.015-.079-.068-1.149-.974V1.516A1.522,1.522,0,0,0,154.134,0h-2.557a1.522,1.522,0,0,0-1.525,1.516V3.248l-1.149.974a7.182,7.182,0,0,0-2.547,5.486v1.017a.44.44,0,0,0,.88,0V9.708a6.326,6.326,0,0,1,.047-.767h11.144a6.286,6.286,0,0,1,.048.767v7.584H147.236v-4.7a.44.44,0,0,0-.88,0v5.137a4.435,4.435,0,0,0,.63,2.278,1.3,1.3,0,0,0-.63,1.11v.608a1.287,1.287,0,0,0,.328.859,1.287,1.287,0,0,0-.328.859v.608a1.287,1.287,0,0,0,.328.859,1.287,1.287,0,0,0-.328.859v.608a1.287,1.287,0,0,0,.328.859,1.287,1.287,0,0,0-.328.859V28.7a1.3,1.3,0,0,0,1.3,1.3H158.05a1.3,1.3,0,0,0,1.3-1.3V28.1a1.287,1.287,0,0,0-.328-.859,1.287,1.287,0,0,0,.328-.859v-.608a1.287,1.287,0,0,0-.328-.859,1.287,1.287,0,0,0,.328-.859v-.608a1.287,1.287,0,0,0-.328-.859,1.287,1.287,0,0,0,.328-.859v-.608a1.3,1.3,0,0,0-.63-1.11,4.435,4.435,0,0,0,.63-2.278ZM151.576.875h2.557a.643.643,0,0,1,.645.641v1.5h-3.847v-1.5a.644.644,0,0,1,.645-.641Zm6.9,23.175a.423.423,0,0,1-.424.422H147.66a.423.423,0,0,1-.424-.422v-.608a.423.423,0,0,1,.424-.422H158.05a.423.423,0,0,1,.424.422Zm0-2.326a.423.423,0,0,1-.424.422H147.66a.423.423,0,0,1-.424-.422v-.608a.423.423,0,0,1,.424-.422H158.05a.423.423,0,0,1,.424.422Zm-.668-1.9h-9.9l-.119-.19a3.567,3.567,0,0,1-.521-1.463h11.184a3.567,3.567,0,0,1-.521,1.463Zm.668,8.884a.423.423,0,0,1-.424.422H147.66a.423.423,0,0,1-.424-.422V28.1a.423.423,0,0,1,.424-.422h5.865a.438.438,0,1,0,0-.875h-5.865a.423.423,0,0,1-.424-.422v-.608a.423.423,0,0,1,.424-.422H158.05a.423.423,0,0,1,.424.422v.608a.423.423,0,0,1-.424.422H155.4a.438.438,0,1,0,0,.875h2.647a.423.423,0,0,1,.424.422Z" fill="#e63946"/>
    <path id="Path_82" data-name="Path 82" d="M216.549,168.419a.438.438,0,0,0,.438-.438v-.7a2.485,2.485,0,0,0,2.043-2.442c0-.936-1.036-2.536-1.906-3.714a.715.715,0,0,0-1.151,0c-.869,1.177-1.905,2.777-1.905,3.714a2.485,2.485,0,0,0,2.043,2.442v.7A.438.438,0,0,0,216.549,168.419Zm.438-2.033v-.711l1.121-1.121a1.113,1.113,0,0,1,.047.287A1.608,1.608,0,0,1,216.987,166.386Zm.75-2.7-.75.75V162.45A13.976,13.976,0,0,1,217.736,163.687Zm-1.625-1.237v1.988l-.75-.75A13.976,13.976,0,0,1,216.111,162.45Zm-1.168,2.391a1.109,1.109,0,0,1,.047-.286l1.121,1.121v.71A1.608,1.608,0,0,1,214.943,164.841Z" transform="translate(-63.723 -151.453)" fill="#e63946"/>
  </g>
</svg>
