<svg xmlns="http://www.w3.org/2000/svg" width="30" height="27.129" viewBox="0 0 30 27.129">
  <g id="suitcase" transform="translate(0 -24.504)">
    <path id="Path_75" data-name="Path 75" d="M128.422,29.056h-8.141V26.863a2.361,2.361,0,0,0-2.358-2.359h-5.685a2.361,2.361,0,0,0-2.358,2.359v2.193h-3.13a.44.44,0,1,0,0,.881h21.672a.779.779,0,0,1,.778.778v5.651a.782.782,0,0,1-.237.559L126.4,39.409a.774.774,0,0,1-.541.219h-9.9a.44.44,0,1,0,0,.881h3.969v1.533a1.96,1.96,0,0,0,3.921,0V40.509h2.006a1.651,1.651,0,0,0,1.154-.467l1.437-1.392V49.974a.779.779,0,0,1-.778.778h-18.52a.44.44,0,0,0,0,.881h18.52a1.661,1.661,0,0,0,1.659-1.659V37.8l.247-.239a1.667,1.667,0,0,0,.5-1.191V30.714a1.66,1.66,0,0,0-1.659-1.659Zm-11.1,0h-4.486V27.462h4.486Zm.881,0V27.022a.44.44,0,0,0-.44-.44H112.4a.44.44,0,0,0-.44.44v2.034h-1.2V26.863a1.479,1.479,0,0,1,1.478-1.478h5.685a1.479,1.479,0,0,1,1.478,1.478v2.193h-1.2Zm4.767,12.986a1.08,1.08,0,1,1-2.16,0V40.509h2.16Z" transform="translate(-100.081)" fill="#e63946"/>
    <path id="Path_76" data-name="Path 76" d="M8.19,117.131a1.963,1.963,0,0,0,1.96-1.96v-1.533h3.969a.44.44,0,0,0,0-.881h-9.9a.774.774,0,0,1-.541-.219l-2.565-2.484a.782.782,0,0,1-.237-.559v-5.651a.779.779,0,0,1,.778-.778h3.25a.44.44,0,0,0,0-.881H1.659A1.661,1.661,0,0,0,0,103.843v5.651a1.668,1.668,0,0,0,.5,1.191l.247.239V123.1a1.661,1.661,0,0,0,1.659,1.659h4.9a.44.44,0,0,0,0-.881H2.41a.779.779,0,0,1-.778-.778V111.777l1.437,1.393a1.651,1.651,0,0,0,1.154.467H6.229v1.533A1.963,1.963,0,0,0,8.19,117.131Zm1.08-1.96a1.08,1.08,0,1,1-2.16,0v-1.533H9.27Z" transform="translate(0 -73.128)" fill="#e63946"/>
  </g>
</svg>
