<svg xmlns="http://www.w3.org/2000/svg" width="30" height="30" viewBox="0 0 30 30">
  <path id="textile" d="M26.616,13.642h1.421a1.963,1.963,0,0,0,0-3.926h-.478A5.992,5.992,0,0,0,26.8,7h1.24a1.963,1.963,0,1,0,0-3.926h-.986A2.08,2.08,0,0,0,26.986.839a1.973,1.973,0,0,0-3.485.509c-.188.55-.53.988-.8,1.728H20.41c.061-.134.121-.278.177-.432a1.973,1.973,0,1,0-3.727-1.3,5.363,5.363,0,0,1-.35.756,7.552,7.552,0,0,0-.449.971H13.768c.061-.134.121-.278.177-.432a1.973,1.973,0,1,0-3.727-1.3,5.363,5.363,0,0,1-.35.756,7.452,7.452,0,0,0-.448.971H7.127A2.08,2.08,0,0,0,7.062.839a1.973,1.973,0,0,0-3.485.509c-.188.55-.531.991-.8,1.728H1.963A1.963,1.963,0,0,0,1.963,7H5.888c.059.122.12.242.181.358a5.24,5.24,0,0,1,.7,2.787v.006s0,0,0,0,0,0,0,0c0,2.606-1.289,2.895-1.289,4.841a3.513,3.513,0,0,0,.256,1.358H3.445A6.2,6.2,0,0,1,3.31,15c0-2.721,1.289-2.832,1.289-4.853a3.833,3.833,0,0,0-.487-1.863.439.439,0,0,0-.785.4A3.242,3.242,0,0,1,3.69,9.717H1.963a1.963,1.963,0,1,0,0,3.925h.583a7.969,7.969,0,0,0,0,2.716H1.963a1.963,1.963,0,1,0,0,3.925H3.691c-.134.948-.745,1.432-1.069,2.716H1.963a1.963,1.963,0,1,0,0,3.925h.82c.262.722.6,1.191.789,1.728A1.973,1.973,0,1,0,7.3,27.362c-.056-.156-.116-.3-.178-.437h2.3c.259.712.607,1.2.79,1.728a1.973,1.973,0,1,0,3.728-1.291c-.056-.156-.116-.3-.178-.437h2.3c.262.722.6,1.191.789,1.728a1.973,1.973,0,1,0,3.728-1.291c-.056-.156-.116-.3-.178-.437h2.3c.263.723.6,1.19.79,1.728a1.973,1.973,0,0,0,3.485.508,2.083,2.083,0,0,0,.065-2.236h.99a1.963,1.963,0,0,0,0-3.926H26.8a5.838,5.838,0,0,0,.763-2.716h.478a1.963,1.963,0,0,0,0-3.926H26.619a2.872,2.872,0,0,1,0-2.716ZM1.963,12.763a1.084,1.084,0,1,1,0-2.168H3.688a11.791,11.791,0,0,1-.9,2.168Zm27.158-1.084a1.085,1.085,0,0,1-1.084,1.084H20.418a5.743,5.743,0,0,0,.5-2.168h7.12A1.085,1.085,0,0,1,29.121,11.679ZM14.275,19.4a5.832,5.832,0,0,0-.5-2.168h8.942a12.458,12.458,0,0,1,.9,2.168ZM15.9,23H13.514a5.838,5.838,0,0,0,.763-2.716h2.7C16.84,21.231,16.228,21.715,15.9,23Zm-5.731,0c.356-1.16,1.065-1.672,1.065-3.146,0-1.441-.712-2-1.067-3.166,0-.011-.006-.022-.01-.032a6.724,6.724,0,0,1-.08-3.013h2.289a3.911,3.911,0,0,0,.339,3.424,5.235,5.235,0,0,1,.7,2.776v0s0,0,0,0v.005a5.116,5.116,0,0,1-.695,2.781c-.063.119-.126.24-.188.366H10.174Zm-3.3,0a5.838,5.838,0,0,0,.763-2.716h2.7c-.134.949-.748,1.438-1.07,2.716Zm3-14.516a3.759,3.759,0,0,1,.463,1.233h-2.7A5.991,5.991,0,0,0,6.872,7h2.4A6.6,6.6,0,0,0,9.868,8.483ZM7.634,10.6h9.337c-.188,1.265-1.257,1.759-1.257,4.4a7.3,7.3,0,0,0,.117,1.358H13.336a2.872,2.872,0,0,1,0-2.716h.984a.439.439,0,0,0,0-.879H7.135a5.743,5.743,0,0,0,.5-2.168Zm15.98-.879h-2.7A5.991,5.991,0,0,0,20.155,7h2.4C22.878,8.287,23.475,8.776,23.614,9.716ZM19.171,7c.059.122.12.242.181.358a5.224,5.224,0,0,1,.7,2.8,5.107,5.107,0,0,1-.695,2.766,3.877,3.877,0,0,0-.338,3.432H16.728A6.2,6.2,0,0,1,16.593,15a5.114,5.114,0,0,1,.695-2.78c1.39-2.642-.008-3.737-.466-5.219h2.35ZM15.908,7c.323,1.268.928,1.783,1.065,2.716h-2.7A5.992,5.992,0,0,0,13.514,7Zm6.565,9.357H19.978a2.874,2.874,0,0,1,0-2.716h2.495a7.979,7.979,0,0,0,0,2.716Zm6.648-11.32a1.085,1.085,0,0,1-1.084,1.084H26.4a2.7,2.7,0,0,1-.121-.829,2.8,2.8,0,0,1,.326-1.339h1.431a1.085,1.085,0,0,1,1.084,1.084ZM24.333,1.632a1.1,1.1,0,0,1,1.04-.753,1.08,1.08,0,0,1,.895.465c.759,1.081-.865,1.964-.865,3.949,0,1.851,1.155,2.191,1.278,4.424H24.5c-.183-1.645-1.266-1.936-1.266-4.424,0-2.089.725-2.569,1.1-3.661ZM22.4,6.122H13.119A2.7,2.7,0,0,1,13,5.293a2.8,2.8,0,0,1,.326-1.339h9.143A8.117,8.117,0,0,0,22.4,6.122ZM17.287,2.513a6.12,6.12,0,0,0,.4-.881,1.1,1.1,0,0,1,1.04-.753A1.094,1.094,0,0,1,19.76,2.345a5.855,5.855,0,0,1-.33.73H17.008c.089-.2.185-.383.279-.562ZM11.05,1.632a1.1,1.1,0,0,1,1.04-.753,1.08,1.08,0,0,1,.895.465c.761,1.083-.865,1.957-.865,3.949,0,1.848,1.154,2.187,1.278,4.424h-2.18C11.037,8.1,9.951,7.749,9.951,5.293c0-2.089.725-2.569,1.1-3.661Zm-6.641,0A1.1,1.1,0,0,1,5.448.879a1.08,1.08,0,0,1,.895.465c.4.572.128,1.109-.2,1.731H3.725c.227-.51.5-.907.683-1.444ZM.879,5.038A1.085,1.085,0,0,1,1.963,3.954H9.184a8.122,8.122,0,0,0-.071,2.168H1.963A1.085,1.085,0,0,1,.879,5.038Zm5.812,8.6H9.186a7.978,7.978,0,0,0,0,2.716H6.7A2.874,2.874,0,0,1,6.691,13.642ZM.879,18.321a1.085,1.085,0,0,1,1.084-1.084H9.432a12.458,12.458,0,0,1,.9,2.168H1.963A1.085,1.085,0,0,1,.879,18.321Zm1.084,7.725a1.084,1.084,0,1,1,0-2.168H2.47a8.2,8.2,0,0,0-.04.828,7.3,7.3,0,0,0,.114,1.339H1.963Zm4.376,2.61a1.082,1.082,0,0,1-.9.465,1.108,1.108,0,0,1-1.04-.755c-.375-1.085-1.094-1.62-1.094-3.659,0-2.518,1.088-2.762,1.267-4.423H6.755c-.121,2.277-1.278,2.525-1.278,4.423,0,1.343.635,1.947,1,2.952A1.078,1.078,0,0,1,6.339,28.656Zm6.776-1a1.094,1.094,0,0,1-1.03,1.462,1.108,1.108,0,0,1-1.04-.755c-.181-.524-.452-.935-.674-1.441h2.417a6.245,6.245,0,0,1,.327.734ZM6.686,26.046a2.936,2.936,0,0,1-.212-2.168h9.28a8.2,8.2,0,0,0-.04.828,7.3,7.3,0,0,0,.114,1.339Zm12.936,2.61a1.082,1.082,0,0,1-.9.465,1.108,1.108,0,0,1-1.04-.755c-.374-1.084-1.094-1.62-1.094-3.659,0-2.524,1.088-2.76,1.267-4.423h2.179a4.977,4.977,0,0,1-.684,2.35c-1.341,2.549-.08,3.685.4,5.025A1.078,1.078,0,0,1,19.622,28.656Zm6.641,0a1.082,1.082,0,0,1-.9.465,1.108,1.108,0,0,1-1.04-.755c-.181-.524-.452-.935-.674-1.441h2.417C26.39,27.551,26.665,28.085,26.263,28.656Zm2.858-3.694a1.085,1.085,0,0,1-1.084,1.084H19.969a2.839,2.839,0,0,1-.33-1.339,2.747,2.747,0,0,1,.117-.828h8.281A1.085,1.085,0,0,1,29.121,24.962ZM20.155,23a5.838,5.838,0,0,0,.763-2.716h2.7a3.034,3.034,0,0,1-.344,1,.439.439,0,0,0,.783.4,3.751,3.751,0,0,0,.468-1.831c0-1.441-.712-2-1.067-3.166a6.706,6.706,0,0,1-.09-3.045h2.289a3.9,3.9,0,0,0,.339,3.424,5.235,5.235,0,0,1,.7,2.776v0s0,0,0,0v.005A5.116,5.116,0,0,1,26,22.634c-.063.119-.126.24-.188.366H20.155Zm8.966-4.679A1.085,1.085,0,0,1,28.037,19.4h-.479a5.832,5.832,0,0,0-.5-2.168h.982A1.085,1.085,0,0,1,29.121,18.321Z" transform="translate(0)" fill="#e63946"/>
</svg>
