<?xml version="1.0" encoding="iso-8859-1"?>
<!-- Generator: Adobe Illustrator 19.0.0, SVG Export Plug-In . SVG Version: 6.00 Build 0)  -->
<svg version="1.1" id="Capa_1" xmlns="http://www.w3.org/2000/svg" xmlns:xlink="http://www.w3.org/1999/xlink" x="0px" y="0px"
	 viewBox="0 0 512 512" style="enable-background:new 0 0 512 512;" xml:space="preserve" width="30" height="30">
<g>
	<g>
		<path d="M437.852,84.754l15.987-15.988c2.929-2.929,2.929-7.678,0-10.606c-2.929-2.928-7.678-2.929-10.606,0.001l-15.986,15.987
			C376.72,26.278,310.881,0,241,0C168.613,0,100.559,28.189,49.374,79.374c-2.14,2.141-2.784,5.356-1.633,8.155
			c1.15,2.799,3.871,4.633,6.897,4.648c64.041,0.337,116.417,52.713,116.755,116.755c0.022,4.11,3.349,7.438,7.46,7.46
			c64.041,0.337,116.417,52.713,116.754,116.755c0.022,4.11,3.349,7.438,7.46,7.46c64.041,0.338,116.417,52.714,116.755,116.755
			c0.016,3.025,1.849,5.746,4.648,6.896c0.923,0.38,1.891,0.563,2.851,0.563c1.952,0,3.87-0.762,5.305-2.196
			C483.811,411.44,512,343.387,512,271C512,201.119,485.722,135.281,437.852,84.754z M196.041,202.601
			c27.604-26.457,56.592-50.344,84.558-69.633c3.41-2.352,4.268-7.022,1.916-10.432c-2.351-3.41-7.022-4.269-10.432-1.916
			c-28.756,19.833-58.534,44.388-86.84,71.555c-7.791-58.661-54.416-105.549-112.957-113.732C118.984,37.411,178.271,15,241,15
			c56.664,0,110.507,18.302,154.811,52.082c-5.9,0.183-12.263,0.987-19.116,2.459c-22.294,4.792-49.578,16.694-78.9,34.422
			c-3.544,2.143-4.681,6.754-2.538,10.298c2.143,3.545,6.753,4.681,10.298,2.538c55.079-33.3,99.705-43.578,116.463-26.817
			c13.92,13.919,9.523,46.662-12.061,89.831c-21.266,42.531-56.696,90.426-100.559,136.145
			C301.416,257.345,254.653,210.582,196.041,202.601z M319.824,326.758c45.073-46.919,81.567-96.27,103.551-140.237
			c13.741-27.482,20.911-51.337,21.44-70.426c72.969,95.875,69.224,231.868-11.259,323.611
			C425.373,381.165,378.485,334.547,319.824,326.758z" fill="#E63946"/>
	</g>
</g>
<g>
	<g>
		<path d="M250.546,261.453c-2.929-2.928-7.678-2.928-10.607,0L81.746,419.647l-5.303-5.303c-2.929-2.928-7.678-2.928-10.606,0
			l-63.64,63.64C0.79,479.391,0,481.298,0,483.287c0,1.989,0.79,3.896,2.197,5.304l21.213,21.213
			c1.464,1.464,3.384,2.196,5.303,2.196s3.839-0.732,5.303-2.196l63.64-63.64c1.407-1.407,2.197-3.314,2.197-5.304
			s-0.79-3.896-2.197-5.304l-5.303-5.303L250.546,272.06C253.475,269.13,253.475,264.382,250.546,261.453z M28.713,493.894
			l-10.607-10.606l53.033-53.033l5.296,5.296c0.014,0.014,5.311,5.31,5.311,5.31L28.713,493.894z" fill="#E63946" />
	</g>
</g>
<g>
</g>
<g>
</g>
<g>
</g>
<g>
</g>
<g>
</g>
<g>
</g>
<g>
</g>
<g>
</g>
<g>
</g>
<g>
</g>
<g>
</g>
<g>
</g>
<g>
</g>
<g>
</g>
<g>
</g>
</svg>
